<svg version="1.1" xmlns="http://www.w3.org/2000/svg" xmlns:xlink="http://www.w3.org/1999/xlink" width="556.67934" height="397.29824" viewBox="0,0,556.67934,397.29824"><g transform="translate(24.43811,23.49999)"><g data-paper-data="{&quot;isPaintingLayer&quot;:true}" fill-rule="nonzero" stroke="none" stroke-width="0" stroke-linecap="butt" stroke-linejoin="miter" stroke-miterlimit="10" stroke-dasharray="" stroke-dashoffset="0" style="mix-blend-mode: normal"><path d="M-24.43811,371.39474v-394.89473h523.34528v394.89474z" fill="#66dbff"/><path d="M46.78509,366.15789v-243.31579h50.54386v243.31579z" fill="#585858"/><path d="M192.53947,373.79825v-213.34211h25.27193v213.34211z" fill="#585858"/><path d="M335.35526,366.15789v-264.47368h79.34211v264.47368z" fill="#585858"/><path d="M432.32895,365.57018v-317.95614h21.74561v317.95614z" fill="#585858"/><path d="M260.12719,371.44737v-256.83333h38.20175v256.83333z" fill="#585858"/><path d="M531.65351,161.04386v-1.17544h0.58772v1.17544z" fill="#585858"/><path d="M105.55702,68.18421c0,23.69495 -0.01549,-6.46492 -24.68421,-6.46492c-24.66872,0 -47.60526,13.11601 -47.60526,-10.57894c0,-23.69495 22.34883,-31.73685 47.01755,-31.73685c24.66872,0 25.27193,25.08575 25.27193,48.78071z" fill="#ffffff"/><path d="M477.88158,87.87719c0,23.69495 -0.01549,-6.46491 -24.68421,-6.46491c-24.66872,0 -47.60527,13.11601 -47.60527,-10.57895c0,-23.69496 22.34883,-31.73685 47.01755,-31.73685c24.66872,0 25.27193,25.08575 25.27193,48.78071z" fill="#ffffff"/><path d="M326.54825,81.71053c0,23.69495 -0.01549,-6.46492 -24.68421,-6.46492c-24.66872,0 -47.60526,13.11601 -47.60526,-10.57895c0,-23.69495 22.34883,-31.73685 47.01755,-31.73685c24.66872,0 25.27193,25.08575 25.27193,48.78071z" fill="#ffffff"/><path d="M160.52193,156.64912c0,23.69495 -0.01549,-6.46491 -24.68421,-6.46491c-24.66872,0 -47.60526,13.11601 -47.60526,-10.57894c0,-23.69496 22.34883,-31.73685 47.01755,-31.73685c24.66872,0 25.27193,25.08575 25.27193,48.78071z" fill="#ffffff"/></g></g></svg>