<svg version="1.1" xmlns="http://www.w3.org/2000/svg" xmlns:xlink="http://www.w3.org/1999/xlink" width="696.02559" height="414.87719" viewBox="0,0,696.02559,414.87719"><g transform="translate(190.06579,38.19298)"><g data-paper-data="{&quot;isPaintingLayer&quot;:true}" fill-rule="nonzero" stroke="none" stroke-width="0" stroke-linecap="butt" stroke-linejoin="miter" stroke-miterlimit="10" stroke-dasharray="" stroke-dashoffset="0" style="mix-blend-mode: normal"><path d="M-17.38548,376.68421v-393.7193h523.34528v393.7193z" fill="#66dbff"/><path d="M-190.06579,-37.60526v-0.58772h1.76316v0.58772z" fill="#585858"/><path d="M87.92544,364.98246v-154.57018h37.61404v154.57018z" fill="#585858"/><path d="M168.44298,367.33333v-260.35965h24.68421v260.35965z" fill="#585858"/><path d="M253.66228,367.92105v-132.82456h105.78947v132.82456z" fill="#585858"/><path d="M398.82895,360.2807v-283.2807h81.10526v283.2807z" fill="#585858"/><path d="M132.5921,86.99123c0,23.69495 -0.01549,-6.46491 -24.68421,-6.46491c-24.66872,0 -47.60526,13.11601 -47.60526,-10.57895c0,-23.69495 22.34883,-31.73684 47.01754,-31.73684c24.66872,0 25.27193,25.08575 25.27193,48.7807z" fill="#ffffff"/><path d="M93.51316,177.79825c0,23.69495 -0.01549,-6.46492 -24.68421,-6.46492c-24.66872,0 -47.60527,13.11601 -47.60527,-10.57895c0,-23.69495 22.34883,-31.73684 47.01755,-31.73684c24.66872,0 25.27193,25.08575 25.27193,48.78071z" fill="#ffffff"/><path d="M271.89035,137.54386c0,23.69496 -0.01549,-6.46492 -24.68421,-6.46492c-24.66872,0 -47.60527,13.11601 -47.60527,-10.57895c0,-23.69496 22.34883,-31.73685 47.01755,-31.73685c24.66872,0 25.27193,25.08575 25.27193,48.78071z" fill="#ffffff"/><path d="M387.9693,90.23684c0,23.69495 -0.01549,-6.46492 -24.68421,-6.46492c-24.66872,0 -47.60527,13.11601 -47.60527,-10.57894c0,-23.69495 22.34883,-31.73685 47.01755,-31.73685c24.66872,0 25.27193,25.08575 25.27193,48.78071z" fill="#ffffff"/></g></g></svg>